<?xml version="1.0" encoding="UTF-8" standalone="no"?>
<!-- Created with Inkscape (http://www.inkscape.org/) -->
<svg
   xmlns:dc="http://purl.org/dc/elements/1.1/"
   xmlns:cc="http://creativecommons.org/ns#"
   xmlns:rdf="http://www.w3.org/1999/02/22-rdf-syntax-ns#"
   xmlns:svg="http://www.w3.org/2000/svg"
   xmlns="http://www.w3.org/2000/svg"
   xmlns:xlink="http://www.w3.org/1999/xlink"
   xmlns:sodipodi="http://sodipodi.sourceforge.net/DTD/sodipodi-0.dtd"
   xmlns:inkscape="http://www.inkscape.org/namespaces/inkscape"
   width="7200"
   height="7200"
   id="svg2"
   sodipodi:version="0.32"
   inkscape:version="0.46"
   sodipodi:docname="coast.svg"
   inkscape:output_extension="org.inkscape.output.svg.inkscape"
   version="1.0"
   style="display:inline">
  <defs
     id="defs4">
    <inkscape:perspective
       sodipodi:type="inkscape:persp3d"
       inkscape:vp_x="0 : 526.18109 : 1"
       inkscape:vp_y="0 : 1000 : 0"
       inkscape:vp_z="744.09448 : 526.18109 : 1"
       inkscape:persp3d-origin="372.04724 : 350.78739 : 1"
       id="perspective10" />
    <inkscape:perspective
       id="perspective2487"
       inkscape:persp3d-origin="372.04724 : 350.78739 : 1"
       inkscape:vp_z="744.09448 : 526.18109 : 1"
       inkscape:vp_y="0 : 1000 : 0"
       inkscape:vp_x="0 : 526.18109 : 1"
       sodipodi:type="inkscape:persp3d" />
    <inkscape:perspective
       id="perspective2557"
       inkscape:persp3d-origin="372.04724 : 350.78739 : 1"
       inkscape:vp_z="744.09448 : 526.18109 : 1"
       inkscape:vp_y="0 : 1000 : 0"
       inkscape:vp_x="0 : 526.18109 : 1"
       sodipodi:type="inkscape:persp3d" />
    <inkscape:perspective
       id="perspective2627"
       inkscape:persp3d-origin="372.04724 : 350.78739 : 1"
       inkscape:vp_z="744.09448 : 526.18109 : 1"
       inkscape:vp_y="0 : 1000 : 0"
       inkscape:vp_x="0 : 526.18109 : 1"
       sodipodi:type="inkscape:persp3d" />
    <inkscape:perspective
       id="perspective2697"
       inkscape:persp3d-origin="372.04724 : 350.78739 : 1"
       inkscape:vp_z="744.09448 : 526.18109 : 1"
       inkscape:vp_y="0 : 1000 : 0"
       inkscape:vp_x="0 : 526.18109 : 1"
       sodipodi:type="inkscape:persp3d" />
    <inkscape:perspective
       id="perspective2778"
       inkscape:persp3d-origin="372.04724 : 350.78739 : 1"
       inkscape:vp_z="744.09448 : 526.18109 : 1"
       inkscape:vp_y="0 : 1000 : 0"
       inkscape:vp_x="0 : 526.18109 : 1"
       sodipodi:type="inkscape:persp3d" />
    <inkscape:perspective
       id="perspective2868"
       inkscape:persp3d-origin="372.04724 : 350.78739 : 1"
       inkscape:vp_z="744.09448 : 526.18109 : 1"
       inkscape:vp_y="0 : 1000 : 0"
       inkscape:vp_x="0 : 526.18109 : 1"
       sodipodi:type="inkscape:persp3d" />
    <inkscape:perspective
       id="perspective2938"
       inkscape:persp3d-origin="372.04724 : 350.78739 : 1"
       inkscape:vp_z="744.09448 : 526.18109 : 1"
       inkscape:vp_y="0 : 1000 : 0"
       inkscape:vp_x="0 : 526.18109 : 1"
       sodipodi:type="inkscape:persp3d" />
    <inkscape:perspective
       id="perspective3028"
       inkscape:persp3d-origin="372.04724 : 350.78739 : 1"
       inkscape:vp_z="744.09448 : 526.18109 : 1"
       inkscape:vp_y="0 : 1000 : 0"
       inkscape:vp_x="0 : 526.18109 : 1"
       sodipodi:type="inkscape:persp3d" />
    <inkscape:perspective
       id="perspective2490"
       inkscape:persp3d-origin="372.04724 : 350.78739 : 1"
       inkscape:vp_z="744.09448 : 526.18109 : 1"
       inkscape:vp_y="0 : 1000 : 0"
       inkscape:vp_x="0 : 526.18109 : 1"
       sodipodi:type="inkscape:persp3d" />
    <inkscape:perspective
       id="perspective2560"
       inkscape:persp3d-origin="372.04724 : 350.78739 : 1"
       inkscape:vp_z="744.09448 : 526.18109 : 1"
       inkscape:vp_y="0 : 1000 : 0"
       inkscape:vp_x="0 : 526.18109 : 1"
       sodipodi:type="inkscape:persp3d" />
    <inkscape:perspective
       id="perspective2644"
       inkscape:persp3d-origin="372.04724 : 350.78739 : 1"
       inkscape:vp_z="744.09448 : 526.18109 : 1"
       inkscape:vp_y="0 : 1000 : 0"
       inkscape:vp_x="0 : 526.18109 : 1"
       sodipodi:type="inkscape:persp3d" />
    <clipPath
       id="clipPath2501"
       clipPathUnits="userSpaceOnUse">
      <path
         id="path2503"
         clip-rule="evenodd"
         d="M -9,-9 L 1852,-9 L 1852,1427 L -9,1427 L -9,-9 z" />
    </clipPath>
    <inkscape:perspective
       id="perspective2493"
       inkscape:persp3d-origin="372.04724 : 350.78739 : 1"
       inkscape:vp_z="744.09448 : 526.18109 : 1"
       inkscape:vp_y="0 : 1000 : 0"
       inkscape:vp_x="0 : 526.18109 : 1"
       sodipodi:type="inkscape:persp3d" />
    <inkscape:perspective
       id="perspective34173"
       inkscape:persp3d-origin="372.04724 : 350.78739 : 1"
       inkscape:vp_z="744.09448 : 526.18109 : 1"
       inkscape:vp_y="0 : 1000 : 0"
       inkscape:vp_x="0 : 526.18109 : 1"
       sodipodi:type="inkscape:persp3d" />
    <inkscape:perspective
       id="perspective34263"
       inkscape:persp3d-origin="372.04724 : 350.78739 : 1"
       inkscape:vp_z="744.09448 : 526.18109 : 1"
       inkscape:vp_y="0 : 1000 : 0"
       inkscape:vp_x="0 : 526.18109 : 1"
       sodipodi:type="inkscape:persp3d" />
    <inkscape:perspective
       id="perspective35194"
       inkscape:persp3d-origin="372.04724 : 350.78739 : 1"
       inkscape:vp_z="744.09448 : 526.18109 : 1"
       inkscape:vp_y="0 : 1000 : 0"
       inkscape:vp_x="0 : 526.18109 : 1"
       sodipodi:type="inkscape:persp3d" />
    <inkscape:perspective
       id="perspective35264"
       inkscape:persp3d-origin="372.04724 : 350.78739 : 1"
       inkscape:vp_z="744.09448 : 526.18109 : 1"
       inkscape:vp_y="0 : 1000 : 0"
       inkscape:vp_x="0 : 526.18109 : 1"
       sodipodi:type="inkscape:persp3d" />
    <inkscape:perspective
       id="perspective35331"
       inkscape:persp3d-origin="372.04724 : 350.78739 : 1"
       inkscape:vp_z="744.09448 : 526.18109 : 1"
       inkscape:vp_y="0 : 1000 : 0"
       inkscape:vp_x="0 : 526.18109 : 1"
       sodipodi:type="inkscape:persp3d" />
    <inkscape:perspective
       id="perspective35398"
       inkscape:persp3d-origin="372.04724 : 350.78739 : 1"
       inkscape:vp_z="744.09448 : 526.18109 : 1"
       inkscape:vp_y="0 : 1000 : 0"
       inkscape:vp_x="0 : 526.18109 : 1"
       sodipodi:type="inkscape:persp3d" />
    <inkscape:perspective
       id="perspective35465"
       inkscape:persp3d-origin="372.04724 : 350.78739 : 1"
       inkscape:vp_z="744.09448 : 526.18109 : 1"
       inkscape:vp_y="0 : 1000 : 0"
       inkscape:vp_x="0 : 526.18109 : 1"
       sodipodi:type="inkscape:persp3d" />
    <inkscape:perspective
       id="perspective35532"
       inkscape:persp3d-origin="372.04724 : 350.78739 : 1"
       inkscape:vp_z="744.09448 : 526.18109 : 1"
       inkscape:vp_y="0 : 1000 : 0"
       inkscape:vp_x="0 : 526.18109 : 1"
       sodipodi:type="inkscape:persp3d" />
    <inkscape:perspective
       id="perspective35656"
       inkscape:persp3d-origin="372.04724 : 350.78739 : 1"
       inkscape:vp_z="744.09448 : 526.18109 : 1"
       inkscape:vp_y="0 : 1000 : 0"
       inkscape:vp_x="0 : 526.18109 : 1"
       sodipodi:type="inkscape:persp3d" />
    <inkscape:perspective
       id="perspective35736"
       inkscape:persp3d-origin="372.04724 : 350.78739 : 1"
       inkscape:vp_z="744.09448 : 526.18109 : 1"
       inkscape:vp_y="0 : 1000 : 0"
       inkscape:vp_x="0 : 526.18109 : 1"
       sodipodi:type="inkscape:persp3d" />
    <inkscape:perspective
       id="perspective35837"
       inkscape:persp3d-origin="372.04724 : 350.78739 : 1"
       inkscape:vp_z="744.09448 : 526.18109 : 1"
       inkscape:vp_y="0 : 1000 : 0"
       inkscape:vp_x="0 : 526.18109 : 1"
       sodipodi:type="inkscape:persp3d" />
    <inkscape:perspective
       id="perspective35904"
       inkscape:persp3d-origin="372.04724 : 350.78739 : 1"
       inkscape:vp_z="744.09448 : 526.18109 : 1"
       inkscape:vp_y="0 : 1000 : 0"
       inkscape:vp_x="0 : 526.18109 : 1"
       sodipodi:type="inkscape:persp3d" />
    <inkscape:perspective
       id="perspective35971"
       inkscape:persp3d-origin="372.04724 : 350.78739 : 1"
       inkscape:vp_z="744.09448 : 526.18109 : 1"
       inkscape:vp_y="0 : 1000 : 0"
       inkscape:vp_x="0 : 526.18109 : 1"
       sodipodi:type="inkscape:persp3d" />
    <inkscape:perspective
       id="perspective36040"
       inkscape:persp3d-origin="372.04724 : 350.78739 : 1"
       inkscape:vp_z="744.09448 : 526.18109 : 1"
       inkscape:vp_y="0 : 1000 : 0"
       inkscape:vp_x="0 : 526.18109 : 1"
       sodipodi:type="inkscape:persp3d" />
    <inkscape:perspective
       id="perspective13966"
       inkscape:persp3d-origin="372.04724 : 350.78739 : 1"
       inkscape:vp_z="744.09448 : 526.18109 : 1"
       inkscape:vp_y="0 : 1000 : 0"
       inkscape:vp_x="0 : 526.18109 : 1"
       sodipodi:type="inkscape:persp3d" />
    <inkscape:perspective
       id="perspective14038"
       inkscape:persp3d-origin="372.04724 : 350.78739 : 1"
       inkscape:vp_z="744.09448 : 526.18109 : 1"
       inkscape:vp_y="0 : 1000 : 0"
       inkscape:vp_x="0 : 526.18109 : 1"
       sodipodi:type="inkscape:persp3d" />
    <inkscape:perspective
       id="perspective13029"
       inkscape:persp3d-origin="372.04724 : 350.78739 : 1"
       inkscape:vp_z="744.09448 : 526.18109 : 1"
       inkscape:vp_y="0 : 1000 : 0"
       inkscape:vp_x="0 : 526.18109 : 1"
       sodipodi:type="inkscape:persp3d" />
    <inkscape:perspective
       id="perspective13041"
       inkscape:persp3d-origin="372.04724 : 350.78739 : 1"
       inkscape:vp_z="744.09448 : 526.18109 : 1"
       inkscape:vp_y="0 : 1000 : 0"
       inkscape:vp_x="0 : 526.18109 : 1"
       sodipodi:type="inkscape:persp3d" />
    <inkscape:perspective
       id="perspective13054"
       inkscape:persp3d-origin="372.04724 : 350.78739 : 1"
       inkscape:vp_z="744.09448 : 526.18109 : 1"
       inkscape:vp_y="0 : 1000 : 0"
       inkscape:vp_x="0 : 526.18109 : 1"
       sodipodi:type="inkscape:persp3d" />
    <inkscape:perspective
       id="perspective13805"
       inkscape:persp3d-origin="372.04724 : 350.78739 : 1"
       inkscape:vp_z="744.09448 : 526.18109 : 1"
       inkscape:vp_y="0 : 1000 : 0"
       inkscape:vp_x="0 : 526.18109 : 1"
       sodipodi:type="inkscape:persp3d" />
    <inkscape:perspective
       id="perspective13206"
       inkscape:persp3d-origin="372.04724 : 350.78739 : 1"
       inkscape:vp_z="744.09448 : 526.18109 : 1"
       inkscape:vp_y="0 : 1000 : 0"
       inkscape:vp_x="0 : 526.18109 : 1"
       sodipodi:type="inkscape:persp3d" />
    <inkscape:perspective
       id="perspective13833"
       inkscape:persp3d-origin="372.04724 : 350.78739 : 1"
       inkscape:vp_z="744.09448 : 526.18109 : 1"
       inkscape:vp_y="0 : 1000 : 0"
       inkscape:vp_x="0 : 526.18109 : 1"
       sodipodi:type="inkscape:persp3d" />
    <inkscape:perspective
       id="perspective13920"
       inkscape:persp3d-origin="372.04724 : 350.78739 : 1"
       inkscape:vp_z="744.09448 : 526.18109 : 1"
       inkscape:vp_y="0 : 1000 : 0"
       inkscape:vp_x="0 : 526.18109 : 1"
       sodipodi:type="inkscape:persp3d" />
    <inkscape:perspective
       id="perspective2582"
       inkscape:persp3d-origin="372.04724 : 350.78739 : 1"
       inkscape:vp_z="744.09448 : 526.18109 : 1"
       inkscape:vp_y="0 : 1000 : 0"
       inkscape:vp_x="0 : 526.18109 : 1"
       sodipodi:type="inkscape:persp3d" />
    <inkscape:perspective
       id="perspective2547"
       inkscape:persp3d-origin="372.04724 : 350.78739 : 1"
       inkscape:vp_z="744.09448 : 526.18109 : 1"
       inkscape:vp_y="0 : 1000 : 0"
       inkscape:vp_x="0 : 526.18109 : 1"
       sodipodi:type="inkscape:persp3d" />
    <inkscape:perspective
       id="perspective2620"
       inkscape:persp3d-origin="372.04724 : 350.78739 : 1"
       inkscape:vp_z="744.09448 : 526.18109 : 1"
       inkscape:vp_y="0 : 1000 : 0"
       inkscape:vp_x="0 : 526.18109 : 1"
       sodipodi:type="inkscape:persp3d" />
    <inkscape:perspective
       id="perspective2721"
       inkscape:persp3d-origin="372.04724 : 350.78739 : 1"
       inkscape:vp_z="744.09448 : 526.18109 : 1"
       inkscape:vp_y="0 : 1000 : 0"
       inkscape:vp_x="0 : 526.18109 : 1"
       sodipodi:type="inkscape:persp3d" />
    <inkscape:perspective
       id="perspective3630"
       inkscape:persp3d-origin="372.04724 : 350.78739 : 1"
       inkscape:vp_z="744.09448 : 526.18109 : 1"
       inkscape:vp_y="0 : 1000 : 0"
       inkscape:vp_x="0 : 526.18109 : 1"
       sodipodi:type="inkscape:persp3d" />
    <inkscape:perspective
       id="perspective2634"
       inkscape:persp3d-origin="372.04724 : 350.78739 : 1"
       inkscape:vp_z="744.09448 : 526.18109 : 1"
       inkscape:vp_y="0 : 1000 : 0"
       inkscape:vp_x="0 : 526.18109 : 1"
       sodipodi:type="inkscape:persp3d" />
    <inkscape:perspective
       id="perspective5930"
       inkscape:persp3d-origin="372.04724 : 350.78739 : 1"
       inkscape:vp_z="744.09448 : 526.18109 : 1"
       inkscape:vp_y="0 : 1000 : 0"
       inkscape:vp_x="0 : 526.18109 : 1"
       sodipodi:type="inkscape:persp3d" />
    <inkscape:perspective
       id="perspective6020"
       inkscape:persp3d-origin="372.04724 : 350.78739 : 1"
       inkscape:vp_z="744.09448 : 526.18109 : 1"
       inkscape:vp_y="0 : 1000 : 0"
       inkscape:vp_x="0 : 526.18109 : 1"
       sodipodi:type="inkscape:persp3d" />
    <inkscape:perspective
       id="perspective6107"
       inkscape:persp3d-origin="372.04724 : 350.78739 : 1"
       inkscape:vp_z="744.09448 : 526.18109 : 1"
       inkscape:vp_y="0 : 1000 : 0"
       inkscape:vp_x="0 : 526.18109 : 1"
       sodipodi:type="inkscape:persp3d" />
    <inkscape:perspective
       id="perspective6185"
       inkscape:persp3d-origin="372.04724 : 350.78739 : 1"
       inkscape:vp_z="744.09448 : 526.18109 : 1"
       inkscape:vp_y="0 : 1000 : 0"
       inkscape:vp_x="0 : 526.18109 : 1"
       sodipodi:type="inkscape:persp3d" />
    <inkscape:perspective
       id="perspective6238"
       inkscape:persp3d-origin="372.04724 : 350.78739 : 1"
       inkscape:vp_z="744.09448 : 526.18109 : 1"
       inkscape:vp_y="0 : 1000 : 0"
       inkscape:vp_x="0 : 526.18109 : 1"
       sodipodi:type="inkscape:persp3d" />
    <inkscape:perspective
       id="perspective6311"
       inkscape:persp3d-origin="372.04724 : 350.78739 : 1"
       inkscape:vp_z="744.09448 : 526.18109 : 1"
       inkscape:vp_y="0 : 1000 : 0"
       inkscape:vp_x="0 : 526.18109 : 1"
       sodipodi:type="inkscape:persp3d" />
    <inkscape:perspective
       id="perspective2579"
       inkscape:persp3d-origin="372.04724 : 350.78739 : 1"
       inkscape:vp_z="744.09448 : 526.18109 : 1"
       inkscape:vp_y="0 : 1000 : 0"
       inkscape:vp_x="0 : 526.18109 : 1"
       sodipodi:type="inkscape:persp3d" />
    <inkscape:perspective
       id="perspective2632"
       inkscape:persp3d-origin="372.04724 : 350.78739 : 1"
       inkscape:vp_z="744.09448 : 526.18109 : 1"
       inkscape:vp_y="0 : 1000 : 0"
       inkscape:vp_x="0 : 526.18109 : 1"
       sodipodi:type="inkscape:persp3d" />
    <inkscape:perspective
       id="perspective2503"
       inkscape:persp3d-origin="372.04724 : 350.78739 : 1"
       inkscape:vp_z="744.09448 : 526.18109 : 1"
       inkscape:vp_y="0 : 1000 : 0"
       inkscape:vp_x="0 : 526.18109 : 1"
       sodipodi:type="inkscape:persp3d" />
    <inkscape:perspective
       id="perspective2561"
       inkscape:persp3d-origin="372.04724 : 350.78739 : 1"
       inkscape:vp_z="744.09448 : 526.18109 : 1"
       inkscape:vp_y="0 : 1000 : 0"
       inkscape:vp_x="0 : 526.18109 : 1"
       sodipodi:type="inkscape:persp3d" />
    <inkscape:perspective
       id="perspective2611"
       inkscape:persp3d-origin="372.04724 : 350.78739 : 1"
       inkscape:vp_z="744.09448 : 526.18109 : 1"
       inkscape:vp_y="0 : 1000 : 0"
       inkscape:vp_x="0 : 526.18109 : 1"
       sodipodi:type="inkscape:persp3d" />
    <inkscape:perspective
       id="perspective2684"
       inkscape:persp3d-origin="372.04724 : 350.78739 : 1"
       inkscape:vp_z="744.09448 : 526.18109 : 1"
       inkscape:vp_y="0 : 1000 : 0"
       inkscape:vp_x="0 : 526.18109 : 1"
       sodipodi:type="inkscape:persp3d" />
    <inkscape:perspective
       id="perspective2757"
       inkscape:persp3d-origin="372.04724 : 350.78739 : 1"
       inkscape:vp_z="744.09448 : 526.18109 : 1"
       inkscape:vp_y="0 : 1000 : 0"
       inkscape:vp_x="0 : 526.18109 : 1"
       sodipodi:type="inkscape:persp3d" />
    <inkscape:perspective
       id="perspective2830"
       inkscape:persp3d-origin="372.04724 : 350.78739 : 1"
       inkscape:vp_z="744.09448 : 526.18109 : 1"
       inkscape:vp_y="0 : 1000 : 0"
       inkscape:vp_x="0 : 526.18109 : 1"
       sodipodi:type="inkscape:persp3d" />
    <inkscape:perspective
       id="perspective2903"
       inkscape:persp3d-origin="372.04724 : 350.78739 : 1"
       inkscape:vp_z="744.09448 : 526.18109 : 1"
       inkscape:vp_y="0 : 1000 : 0"
       inkscape:vp_x="0 : 526.18109 : 1"
       sodipodi:type="inkscape:persp3d" />
    <inkscape:perspective
       id="perspective2535"
       inkscape:persp3d-origin="372.04724 : 350.78739 : 1"
       inkscape:vp_z="744.09448 : 526.18109 : 1"
       inkscape:vp_y="0 : 1000 : 0"
       inkscape:vp_x="0 : 526.18109 : 1"
       sodipodi:type="inkscape:persp3d" />
  </defs>
  <sodipodi:namedview
     id="base"
     pagecolor="#ffffff"
     bordercolor="#666666"
     borderopacity="1.0"
     gridtolerance="10000"
     guidetolerance="10"
     objecttolerance="10"
     inkscape:pageopacity="0.0"
     inkscape:pageshadow="2"
     inkscape:zoom="0.0625"
     inkscape:cx="5461.1384"
     inkscape:cy="3319.6432"
     inkscape:document-units="px"
     inkscape:current-layer="layer3"
     showgrid="false"
     showborder="true"
     inkscape:window-width="1680"
     inkscape:window-height="975"
     inkscape:window-x="0"
     inkscape:window-y="49"
     units="in" />
  <metadata
     id="metadata7">
    <rdf:RDF>
      <cc:Work
         rdf:about="">
        <dc:format>image/svg+xml</dc:format>
        <dc:type
           rdf:resource="http://purl.org/dc/dcmitype/StillImage" />
      </cc:Work>
    </rdf:RDF>
  </metadata>
  <g
     inkscape:groupmode="layer"
     id="layer3"
     inkscape:label="sea"
     style="display:inline">
    <image
       style="display:inline"
       y="-103.70483"
       x="82.213257"
       id="image2537"
       height="7355.041"
       width="4868.3921"
       sodipodi:absref="/home/kris/Dropbox/Public/ennorath/archive/coast/sea.png"
       xlink:href="archive/coast/sea.png" />
  </g>
  <g
     inkscape:groupmode="layer"
     id="layer1"
     inkscape:label="coastline"
     style="display:inline">
    <path
       style="opacity:1;fill:#ffffff;fill-opacity:1;stroke:none;stroke-width:3;stroke-miterlimit:4;stroke-dasharray:none;stroke-opacity:1"
       d="M 2279.3125 0 C 2279.5235 23.238546 2282.632 46.419544 2289 69.28125 C 2258.3508 64.667327 2227.2849 63.90405 2196.3438 61.875 C 2163.5927 68.251459 2125.5904 67.081936 2098.4375 87.5 C 2092.0248 97.814019 2113.6321 122.69524 2105.5312 141.96875 C 2123.5606 166.93972 2131.9302 195.63327 2140.5625 224.59375 C 2156.0713 248.64043 2190.6968 258.45321 2191.3438 292.65625 C 2191.446 324.52858 2208.9052 351.91824 2232.3438 372.34375 C 2266.9889 385.37087 2260.6114 423.03603 2284.7812 445.0625 C 2308.4386 460.28625 2325.2142 481.69222 2338.7812 506.25 C 2355.4983 530.65387 2378.4326 550.31222 2395 574.625 C 2410.3085 606.06271 2377.157 624.38894 2360.0938 643.1875 C 2334.9556 679.02315 2387.2599 684.13446 2410.5 689.5 C 2406.5584 686.00704 2396.2209 673.06477 2413.9375 689.1875 C 2414.6984 690.67291 2415.3654 692.2929 2416 694 C 2423.6134 714.47936 2423.2179 749.72042 2440.1875 772.09375 C 2464.6295 793.21861 2507.5637 767.17698 2536.5 786 C 2568.8926 787.98233 2575.766 855.39542 2606.5 831 C 2624.3035 808.4404 2662.233 809.99351 2671.5 785 C 2696.3386 749.52854 2661.3655 722.88963 2632.1562 709.125 C 2618.8544 690.10746 2618.1114 660.15438 2585.5 671 C 2548.5003 673.08987 2536.8213 630.92272 2500.375 631.21875 C 2471.5884 611.52098 2475.7104 562.10592 2501.875 541.125 C 2516.0016 520.62212 2517.6112 494.60149 2527.1562 472.75 C 2539.6056 468.44684 2550.3319 460.88285 2551 448 C 2588.3698 426.63529 2620.3936 394.41223 2658.1875 376.5625 C 2674.1202 349.23254 2703.6828 348.69644 2724 324 C 2768.587 307.87939 2824.7551 289.41134 2869.4062 313.0625 C 2908.3188 335.10557 2954.3211 344.40309 2995.3438 324.5 C 3038.9329 308.86575 3078.2383 337.62325 3116 317 C 3145.5495 351.10813 3200.1496 355.37849 3209.75 407.90625 C 3238.0791 447.71547 3254.6555 493.68808 3255 542 C 3230.8882 587.08417 3223.2679 638.23104 3227 689.5 C 3218.8706 733.10135 3221.7231 789.94329 3175.9688 807.3125 C 3170.4779 808.06151 3164.2279 808.08369 3157.0312 807.21875 C 3103.1112 819.51356 3041.8116 837.90097 3006.0625 882.09375 C 2947.7407 874.11025 2899.2663 923.66529 2893.8125 982.25 C 2913.3204 1049.815 2999.528 1017.8728 3016.5312 1089.1875 C 2989.4954 1105.7548 3016.8603 1142.5228 2974.5 1140.2812 C 2927.6475 1108.352 2875.5628 1115.1381 2823.4688 1098.0938 C 2766.0273 1110.7501 2701.2063 1063.226 2650.5312 1100.3438 C 2626.7377 1084.7658 2602.9881 1071.1593 2572.9375 1088.5625 C 2512.3377 1115.5276 2584.2356 1240.2989 2622.5 1168.4062 C 2654.7809 1178.7728 2712.7528 1177.563 2726.5938 1212.2188 C 2731.8067 1273.0307 2651.1112 1297.1381 2602.5625 1292 C 2578.8225 1274.3775 2550.1726 1263.833 2520.5312 1263.8438 C 2480.3641 1259.5474 2421.3369 1344.0147 2401.5625 1276.8125 C 2370.7124 1272.8878 2376.9244 1251.7227 2374.6562 1223.3438 C 2345.3168 1219.8091 2326.8648 1220.8274 2335.375 1188.0312 C 2362.2689 1168.0363 2405.3537 1146.0299 2419.7188 1103.3125 C 2441.7584 1033.9084 2352.836 1000.6367 2301.8125 1036.125 C 2258.0652 1009.1827 2256.2867 1072.9416 2211.8438 1072.2188 C 2181.4486 1076.0649 2128.0405 1152.9257 2120.125 1103.5938 C 2078.0487 1093.7646 2041.211 1171.3565 1988.0938 1159.1875 C 1935.3149 1175.6007 1882.1792 1181.7532 1828.3438 1207.8438 C 1771.2114 1235.2407 1706.7685 1252.3017 1663.125 1301.3125 C 1601.6769 1320.6414 1568.1953 1364.0725 1541.375 1420.3438 C 1502.0357 1455.3309 1537.8966 1539.1001 1591 1530.4062 C 1618.3132 1559.3651 1730.3332 1511.9239 1695.1875 1571.875 C 1659.0603 1568.3844 1642.4293 1627.4395 1613.9062 1607.5625 C 1580.4189 1630.6288 1533.4659 1640.9524 1503.3125 1676.0938 C 1469.2139 1729.2145 1417.9353 1774.553 1352 1769.4062 C 1303.822 1736.8081 1290.6883 1766.2153 1290.0312 1802.4375 C 1289.8645 1802.4889 1289.6979 1802.5414 1289.5312 1802.5938 C 1287.4697 1862.3082 1303.7824 1917.7227 1298.9375 1977.4062 C 1277.5071 2032.857 1259.9092 2101.4396 1309.5625 2149.8438 C 1303.1794 2197.895 1347.135 2170.6463 1368 2196.5 C 1333.5816 2242.1603 1370.3808 2276.5484 1420.5625 2262.9688 C 1488.821 2239.3049 1481.4523 2328.4775 1534.0312 2334.8125 C 1578.4398 2398.7423 1627.6112 2309.4715 1609.375 2260.1562 C 1582.6354 2232.2505 1602.7614 2163.3715 1637.8125 2209.9375 C 1703.8654 2211.196 1747.3047 2270.9705 1801.7188 2284.1875 C 1864.0204 2259.6384 1912.2859 2333.5618 1972.8125 2292.6875 C 2031.0542 2274.353 2103.0312 2260.1653 2140.7812 2210.9375 C 2163.8358 2154.5694 2163.619 2216.4621 2139 2237.375 C 2099.1208 2273.871 2061.6908 2309.6861 2016.1562 2334.5312 C 1979.9733 2407.0172 1906.7292 2338.3057 1855.8125 2345.5625 C 1848.7249 2404.2271 1778.2149 2381.786 1735.3125 2398.875 C 1760.734 2443.8783 1654.2447 2459.7629 1636.5938 2423.75 C 1634.6355 2368.9909 1560.456 2353.3539 1562.5625 2417.5625 C 1591.053 2448.6294 1528.7717 2460.4211 1566.5 2480.5 C 1557.9126 2518.9359 1544.5693 2562.1496 1569.0938 2604.4375 C 1548.5511 2637.9467 1560.6211 2668.3855 1566.8125 2701.7812 C 1555.8142 2722.4197 1556.4686 2746.4684 1577.9062 2766.625 C 1622.5391 2779.1948 1677.4375 2762.9916 1721.8125 2789.5312 C 1710.8295 2829.5723 1749.0779 2851.675 1749.375 2892.3125 C 1758.2782 2948.7726 1827.51 3006.6043 1886.5625 2994.125 C 1918.7637 2958.0751 1921.3871 3007.2036 1952.6562 2991.1562 C 1986.9354 3049.1463 2055.6658 2996.6059 2101.2188 3044.5 C 2127.3209 3090.9412 2158.7333 3142.4155 2223.5312 3134.9375 C 2280.1802 3136.6075 2288.2089 3057.6044 2334.875 3052.125 C 2328.1447 3110.0525 2300.0879 3156.6787 2285.375 3214.75 C 2310.739 3248.3316 2262.0283 3298.3944 2299.5 3317.9688 C 2253.8213 3397.0944 2420.8243 3399.3365 2379.1875 3332.4062 C 2376.9411 3333.7759 2376.0131 3333.035 2377.2188 3329.4062 C 2377.9275 3330.4268 2378.5715 3331.4163 2379.1875 3332.4062 C 2388.5493 3326.6984 2420.5947 3283.7595 2414.5 3254.875 C 2427.2043 3151.6349 2531.8275 3249.3271 2458.7812 3292.5 C 2477.6235 3320.4604 2484.5412 3342.9633 2455.0625 3370.3125 C 2442.9878 3420.5086 2473.744 3490.6568 2496.0938 3524.4688 C 2520.9837 3554.0445 2551.9606 3590.5333 2602.1562 3586.6875 C 2655.3923 3574.5795 2686.7951 3515.3099 2746.4062 3497.5938 C 2794.6843 3453.2333 2771.4938 3499.5984 2759.125 3531.25 C 2772.2909 3572.4145 2832.255 3632.8702 2776.0938 3674.375 C 2731.3999 3694.9479 2735.9462 3738.5116 2762.7812 3754.4062 C 2741.1892 3781.1232 2765.5983 3837.3645 2767.75 3872.75 C 2780.207 3948.2062 2841.3034 3881.7962 2876.5 3871.9688 C 2862.6135 3915.0533 2772.1908 3934.1231 2803.5312 3985.25 C 2792.1265 4028.8127 2863.5639 4069.5794 2821.3438 4097.2188 C 2788.2393 4111.7068 2805.9504 4122.0168 2809.8438 4141.8125 C 2850.0066 4177.1029 2816.1318 4228.1127 2834.0938 4271.1562 C 2829.3578 4334.119 2874.9645 4381.7366 2858.25 4444.0312 C 2811.8462 4473.0853 2801.6008 4530.0175 2766.1875 4568.1562 C 2728.9621 4606.8887 2710.3605 4661.7154 2660.125 4689.7812 C 2612.1222 4695.0977 2526.416 4735.4738 2572.4688 4794.4375 C 2611.271 4803.7522 2658.1071 4816.0018 2690.9688 4786.2812 C 2708.4938 4786.0641 2735.0985 4773.2302 2750.6875 4762.2188 C 2821.2667 4767.2689 2832.9806 4686.8535 2897.9062 4684.7812 C 2938.7252 4647.3378 2955.6942 4688.7895 2991.25 4699.4375 C 3045.8085 4699.388 3113.5195 4729.5493 3150.125 4739.1875 C 3182.6355 4803.1042 3224.6128 4695.3945 3203.1875 4655.8438 C 3203.0238 4655.4937 3202.9318 4655.2691 3202.9062 4655.1875 C 3204.173 4656.5526 3267.1714 4773.034 3313.5 4708.1562 C 3359.4325 4692.4468 3372.7159 4649.843 3388.4688 4604.9062 C 3430.5572 4605.7002 3456.2232 4561.7484 3495.9375 4570.9688 C 3541.0298 4558.2611 3592.6753 4548.3988 3634.4062 4518.5625 C 3626.1262 4569.3347 3698.7392 4554.1072 3740.125 4547.75 C 3802.749 4565.0408 3824.8814 4463.9532 3880.5938 4511.5938 C 3927.9666 4567.2702 3997.4565 4530.6182 4052.7812 4517.9688 C 4053.3277 4516.2096 4054.3074 4515.8183 4055.9688 4517.25 C 4054.9158 4517.4746 4053.845 4517.7254 4052.7812 4517.9688 C 4049.7868 4527.6086 4059.7732 4578.4896 4041.8125 4597.8438 C 4041.1837 4599.2492 4040.6713 4600.6201 4040.1875 4601.9688 C 4028.3775 4620.7867 4015.717 4635.2758 4014 4599 C 3996.6992 4581.0947 3932.4171 4586.6333 3949.8438 4626.875 C 3909.6829 4646.1121 3944.3377 4730.1188 3982 4704 C 4025.9594 4674.0428 3997.9316 4724.1308 3988 4744.8125 C 3992.2437 4792.9347 4049.8158 4823.6249 4041 4879 C 4093.947 4892.9799 4081.5457 4957.9741 4112.375 4994.0625 C 4165.7484 4997.3656 4167.1894 4926.2998 4185 4891 C 4170.0313 4857.3595 4214.7795 4856.3598 4208 4828 C 4216.7402 4755.3908 4255.8441 4871.6662 4285 4826 C 4273.7261 4780.9904 4300.0442 4738.3588 4349 4737 C 4346.1994 4744.0761 4303.8176 4791.5732 4336 4816 C 4380.8648 4820.6929 4433.8873 4842.384 4442.5938 4892.1875 C 4432.7771 4937.987 4471.8558 5003.2497 4421 5032 C 4368.579 5042.9401 4369.9868 5089.5638 4381 5132.4688 C 4369.402 5178.6583 4415.1404 5213.1364 4412.0938 5251.6562 C 4388.9356 5266.8992 4372.4921 5293.123 4376 5320 C 4392.8728 5362.7563 4401.8611 5406.3014 4391.5 5452.3438 C 4370.2899 5511.7443 4452.3722 5501.6752 4487.9375 5508.7812 C 4520.0564 5537.8103 4468.9718 5541.4724 4449 5534 C 4426.4742 5506.3081 4356.5842 5528.2697 4369.4062 5568.8438 C 4363.2654 5576.0684 4355.7367 5581.5505 4343.0938 5579.5312 C 4317.8971 5595.4869 4291.9668 5613.3938 4273 5637 C 4267.9331 5673.0941 4232.1316 5683.4169 4225 5716 C 4182.8193 5734.8349 4192.33 5785.3489 4145.4375 5792.1875 C 4133.7635 5838.1657 4091.2324 5870.4582 4044.5312 5839.0312 C 3999.8183 5799.4437 3970.2561 5855.9994 3927.875 5858.4375 C 3890.8303 5840.9245 3829.4291 5803.9917 3812 5866 C 3796.3336 5913.2535 3833.3458 5962.1823 3807.5 6008.3125 C 3820.5996 6048.3828 3761.3836 6075.1286 3773.2188 6113.9375 C 3793.4782 6107.7132 3820.8073 6135.0277 3835.6875 6112.0312 C 3864.6448 6105.3124 3885.3011 6070.3594 3889.5 6036.9375 C 3921.3321 6024.1824 3916.117 5955.7714 3959.5938 5982.1875 C 4004.7334 6036.2236 4050.6434 5981.7304 4091 5957 C 4124.8839 5933.0425 4151.9999 5963.7054 4114 5986 C 4087.1112 5982.6616 4027.2421 6064.4165 4079.25 6048.4062 C 4108.3157 6067.7583 4130.2956 6056.3569 4160.75 6049.4688 C 4188.7924 6031.7569 4221.8844 6055.1123 4199.625 6071 C 4198.4141 6070.9941 4197.2151 6070.9881 4196 6071 C 4193.2549 6073.237 4190.4285 6075.1754 4187.5312 6076.875 C 4186.401 6077.26 4185.243 6077.6407 4184 6078 C 4183.9335 6078.3068 4183.8522 6078.6025 4183.7812 6078.9062 C 4147.2535 6097.3798 4100.6457 6080.4521 4064.4375 6103.1875 C 4022.477 6129.7686 3970.5143 6117.8282 3926 6129 C 3883.0954 6118.6441 3825.8284 6112.9046 3803.9062 6161.2188 C 3755.3314 6170.9901 3753.5996 6217.7314 3723 6246 C 3678.4043 6259.9164 3651.2582 6291.8744 3618.5938 6322.2812 C 3567.8841 6328.492 3581.1798 6387.0892 3540.0312 6400.75 C 3500.9838 6420.0217 3460.1103 6443.2635 3439.5312 6485.3438 C 3445.3687 6536.4791 3390.3853 6523.6301 3373.3125 6553.8438 C 3361.5927 6552.9897 3349.8279 6552.6805 3338 6553 C 3293.2656 6555.8395 3265.0486 6599.8421 3271 6642.3125 C 3264.1119 6686.3912 3242.5771 6733.9588 3212.1875 6765.375 C 3173.4894 6736.7862 3137.2533 6776.9421 3098.7812 6760.1562 C 3064.3376 6746.1997 3047.5413 6776.4125 3023.0312 6773.8438 C 3003.3857 6810.9252 2956.4257 6818.3547 2936 6857 C 2935.1373 6899.1859 2870.0973 6907.8207 2891.125 6955.9688 C 2896.2132 6994.9344 2911.5334 7035.113 2946 7062 C 2935.9368 7101.6161 2913.5131 7144.5969 2935 7188 L 2941.1562 7193.0625 L 2946 7199 C 2947.3768 7199.3059 2948.7441 7199.6389 2950.0938 7200 L 7200 7200 L 7200 0 L 2279.3125 0 z M 2416 694 C 2415.7322 692.75897 2412.6227 691.0031 2416 694 z M 4823 4620.4688 L 4826.7188 4620.4688 C 4827.0163 4620.9717 4827.3279 4621.4654 4827.625 4621.9688 C 4826.0899 4621.455 4824.5463 4620.9564 4823 4620.4688 z "
       id="rect3412" />
    <path
       style="fill:#ffffff;fill-rule:evenodd;stroke:none;stroke-width:1px;stroke-linecap:butt;stroke-linejoin:miter;stroke-opacity:1;fill-opacity:1"
       d="M 4216,4964 C 4225.4616,4957.5218 4230.5523,4946.5872 4239.4493,4939.3817 C 4252.9535,4925.5556 4262.4909,4908.3183 4276.5814,4895.0908 C 4285.8728,4890.1586 4301.2941,4893.4583 4308.5053,4900.0671 C 4313.5216,4912.0183 4331.3043,4907.8263 4336.0812,4919.9938 C 4344.2946,4933.4886 4340.1695,4949.7924 4333.3565,4962.8603 C 4331.4686,4973.7795 4337.2011,4989.6852 4320.9277,4991.8529 C 4309.459,4997.7385 4308.8009,5012.5897 4314.42,5022.8118 C 4321.599,5036.4291 4317.5609,5053.0096 4309,5065 C 4298.6545,5069.4703 4286.7769,5066.6475 4276.0179,5065.6536 C 4263.53,5062.7859 4250.7948,5061.8493 4238.1335,5060.0722 C 4222.8132,5057.2829 4208.4155,5062.2113 4199.5853,5075.3825 C 4191.7956,5086.4251 4169.9069,5086.6478 4170.5355,5069.7919 C 4170.423,5051.3617 4175.5615,5033.075 4182.7812,5016.2367 C 4187.8513,5005.2043 4180.378,4991.7349 4185.6843,4980.8907 C 4195.4061,4974.6298 4206.7124,4970.7571 4216,4964 z"
       id="path3363" />
    <rect
       style="opacity:0.54435485;fill:#000000;fill-opacity:0;fill-rule:nonzero;stroke:none;stroke-width:13.60599995;stroke-linecap:round;stroke-linejoin:round;marker:none;marker-start:none;marker-mid:none;marker-end:none;stroke-miterlimit:4;stroke-dasharray:none;stroke-dashoffset:0;stroke-opacity:1;visibility:visible;display:inline;overflow:visible;enable-background:accumulate"
       id="rect2639"
       width="4850"
       height="7262.5"
       x="-62.5"
       y="-50.000061"
       inkscape:export-filename="/home/kris/Dropbox/Public/endor/geography/coastline.png"
       inkscape:export-xdpi="99.139412"
       inkscape:export-ydpi="99.139412" />
    <image
       y="41.71698"
       x="1425.6626"
       id="image2613"
       height="1451.0807"
       width="1889.5165"
       sodipodi:absref="/home/kris/Dropbox/Public/ennorath/archive/coast/0.png"
       xlink:href="archive/coast/0.png" />
    <image
       y="1285.7515"
       x="1216.6268"
       id="image2686"
       height="2271.0566"
       width="1373.4668"
       sodipodi:absref="/home/kris/Dropbox/Public/ennorath/archive/coast/1.png"
       xlink:href="archive/coast/1.png" />
    <image
       y="3343.6624"
       x="2381.6421"
       id="image2759"
       height="1624.819"
       width="1958.8408"
       sodipodi:absref="/home/kris/Dropbox/Public/ennorath/archive/coast/2.png"
       xlink:href="archive/coast/2.png" />
    <image
       y="4636.9404"
       x="3735.1118"
       id="image2832"
       height="1345.1108"
       width="1027.246"
       sodipodi:absref="/home/kris/Dropbox/Public/ennorath/archive/coast/3.png"
       xlink:href="archive/coast/3.png" />
    <image
       y="5805.9233"
       x="2839.6809"
       id="image2905"
       height="1414.6053"
       width="1445.541"
       sodipodi:absref="/home/kris/Dropbox/Public/ennorath/archive/coast/4.png"
       xlink:href="archive/coast/4.png" />
    <image
       y="1332.0078"
       x="1328.1731"
       id="image2952"
       height="144.62805"
       width="155.24297"
       xlink:href="archive/coast/himling.png" />
  </g>
  <g
     inkscape:groupmode="layer"
     id="layer4"
     inkscape:label="reference-actual"
     style="display:none"
     sodipodi:insensitive="true">
    <rect
       style="opacity:0.43548387;fill:none;fill-opacity:1;fill-rule:nonzero;stroke:#000000;stroke-width:11.74344444;stroke-linecap:round;stroke-linejoin:round;marker:none;marker-start:none;marker-mid:none;marker-end:none;stroke-miterlimit:4;stroke-dasharray:none;stroke-dashoffset:0;stroke-opacity:0.05777779;visibility:visible;display:inline;overflow:visible;enable-background:accumulate"
       id="rect25391"
       width="645.14343"
       height="649.50256"
       x="3904.7637"
       y="2449.1558" />
    <image
       y="0"
       x="0"
       id="image2505"
       height="7200"
       width="7200"
       sodipodi:absref="/home/kris/Dropbox/Public/ennorath/build/geography-4096.png"
       xlink:href="build/geography-4096.png" />
  </g>
  <g
     inkscape:groupmode="layer"
     id="layer2"
     inkscape:label="reference-original"
     style="display:none"
     sodipodi:insensitive="true">
    <image
       y="396.00916"
       x="1200.7883"
       id="image2870"
       height="6826.0669"
       width="6006.8384"
       sodipodi:absref="/home/kris/Dropbox/Public/endor/references/black-and-red.png"
       xlink:href="archive/references/black-and-red.png"
       style="opacity:1;display:inline" />
  </g>
</svg>
